<svg width="56" height="56" viewBox="0 0 56 56" fill="none" xmlns="http://www.w3.org/2000/svg">
<path d="M28.0003 4.66663C15.1137 4.66663 4.66699 15.1133 4.66699 28C4.66699 40.8866 15.1137 51.3333 28.0003 51.3333C40.887 51.3333 51.3337 40.8866 51.3337 28C51.3337 21.8116 48.8753 15.8767 44.4995 11.5008C40.1236 7.12495 34.1887 4.66663 28.0003 4.66663Z" fill="white"/>
<path fill-rule="evenodd" clip-rule="evenodd" d="M28.0003 4.66663C15.1137 4.66663 4.66699 15.1133 4.66699 28C4.66699 40.8866 15.1137 51.3333 28.0003 51.3333C40.887 51.3333 51.3337 40.8866 51.3337 28C51.3337 21.8116 48.8753 15.8767 44.4995 11.5008C40.1236 7.12495 34.1887 4.66663 28.0003 4.66663ZM28.0003 46.6666C17.691 46.6666 9.33366 38.3093 9.33366 28C9.33366 17.6906 17.691 9.33329 28.0003 9.33329C38.3096 9.33329 46.667 17.6906 46.667 28C46.667 32.9507 44.7003 37.6986 41.1996 41.1993C37.699 44.7 32.951 46.6666 28.0003 46.6666ZM35.2801 19.8099C35.7338 19.3653 36.4598 19.3653 36.9135 19.8099L38.0801 21.0466C38.301 21.2657 38.4252 21.5638 38.4252 21.8749C38.4252 22.186 38.301 22.4842 38.0801 22.7033L24.9668 35.8166C24.7551 36.0422 24.4595 36.1701 24.1501 36.1701C23.8408 36.1701 23.5452 36.0422 23.3335 35.8166L17.8501 30.2866C17.6293 30.0675 17.505 29.7693 17.505 29.4583C17.505 29.1472 17.6293 28.849 17.8501 28.6299L19.0868 27.3933C19.2985 27.1677 19.5941 27.0397 19.9035 27.0397C20.2128 27.0397 20.5084 27.1677 20.7201 27.3933L24.2201 30.8699L35.2801 19.8099Z" fill="black"/>
</svg>
